<svg width="267" height="534" viewBox="0 0 267 534" fill="none" xmlns="http://www.w3.org/2000/svg">
<path d="M74.6705 168.222L53.5058 159.432L41.7188 172.823L68.1257 183.859L74.6705 168.222Z" fill="#FFC9A6"/>
<path d="M19.7404 153.407C18.0146 162.498 25.2431 171.179 35.8907 172.795C46.5381 174.411 56.5669 168.331 58.2926 159.212C60.0183 150.121 52.7898 141.44 42.1424 139.824C31.4949 138.208 21.4661 144.288 19.7404 153.407Z" fill="#FFC9A6"/>
<path d="M0.367376 133.772C-0.576893 135.525 0.367343 137.633 2.41868 138.482L49.0134 157.131C51.0647 157.953 53.5394 157.186 54.4836 155.433C55.4279 153.681 54.4836 151.545 52.4323 150.723L5.8376 132.074C3.75369 131.253 1.31164 132.02 0.367376 133.772Z" fill="black"/>
<path d="M164.696 116.3L119.209 186.405L65.8412 161.95L57.6684 183.557L124.907 221.704C130.279 224.196 136.922 222.443 139.592 217.788L188.336 166.222L164.696 116.3Z" fill="#EAD1B9"/>
<path d="M197.917 88.2858L200.033 87.0261C207.066 82.8636 217.747 85.9578 212.895 79.9058L171.901 28.423L146.601 43.4024L180.236 85.4652C184.241 90.4492 192.153 91.7089 197.917 88.2858Z" fill="#FCC9A7"/>
<path d="M125.33 53.7812C133.861 67.8569 154.05 73.279 170.363 65.94C186.708 58.6009 193.025 41.239 184.494 27.1906C174.204 10.2396 157.533 6.89864 139.462 15.0319C123.116 22.371 116.799 39.7329 125.33 53.7812Z" fill="#FCC9A7"/>
<path d="M166.523 81.1935C174.273 77.7156 177.301 69.4729 173.231 62.791L158.448 38.4187L125.105 53.3981L137.153 73.2793C142.721 82.4258 155.876 85.9858 166.523 81.1935Z" fill="#FCC9A7"/>
<path d="M129.659 59.0941L128.161 70.1849C128.063 71.9375 130.245 73.0329 132.133 72.1839L140.371 70.0479L129.659 59.0941Z" fill="#FCC9A7"/>
<path d="M173.328 46.2507L189.869 50.9882C189.869 50.9882 202.502 5.61185 161.996 0.0253902C161.996 0.0253902 128.133 -1.67246 115.532 22.6999C111.95 29.6556 112.276 40.4452 121.556 42.0609C121.556 42.0609 121.621 42.6633 121.556 42.0609C120.937 35.9541 123.574 30.6415 123.574 30.6415C123.574 30.6415 131.454 46.8258 147.442 45.2649L152.065 51.2621C153.824 53.535 159.164 52.6587 161.964 51.3716L165.122 49.9476L160.889 42.9372L173.328 46.2507Z" fill="#0B1226"/>
<path d="M157.862 37.8436C154.476 41.075 154.802 46.0864 158.546 48.9892C162.323 51.8919 168.119 51.6455 171.506 48.3867C174.892 45.1553 174.566 40.1439 170.822 37.2412C167.045 34.3384 161.249 34.5849 157.862 37.8436Z" fill="#FCC9A7"/>
<path d="M254.854 488.265L260.65 513.349L239.713 517.074L232.582 491.469L254.854 488.265Z" fill="#FCC9A7"/>
<path d="M264.468 511.843C263.882 510.529 261.993 510.063 260.724 510.939C258.216 512.637 253.723 514.718 247.048 514.28C240.145 513.815 237.54 510.775 236.563 508.584C236.042 507.434 234.577 506.859 233.242 507.352L191.304 523.564C188.764 524.55 186.778 526.357 185.768 528.603C184.824 530.711 186.712 532.957 189.317 532.875L261.765 530.793C264.631 530.711 266.812 528.602 266.552 526.138L265.347 514.143C265.315 513.952 265.282 513.76 265.184 513.568L264.468 511.843Z" fill="#0C0C0C"/>
<path d="M182.311 487.17L180.195 512.665L158.9 511.514L159.812 485.198L182.311 487.17Z" fill="#FCC9A7"/>
<path d="M152.655 219.185L153.274 493.468H190.426L202.473 253.005L152.655 219.185Z" fill="#0C0C0C"/>
<path d="M166.88 95.8442C166.88 95.8442 172.611 84.9178 178.505 82.4258C184.398 79.9338 211.196 76.675 211.196 76.675C211.196 76.675 241.738 94.0916 241.282 125.283L238.612 219.185H152.619C152.651 219.185 146.237 134.402 166.88 95.8442Z" fill="#F7E0C6"/>
<path d="M152.655 219.185L167.861 258.783L186.551 367.389L225.592 496.234L261.897 492.646L231.908 365.993L232.755 271.078C232.755 271.078 234.578 262.37 229.369 219.212H152.655V219.185Z" fill="#232322"/>
<path d="M204 317.303C204.781 327.271 214.81 334.829 226.402 334.172C237.993 333.514 246.785 324.888 246.003 314.893C245.222 304.898 235.193 297.367 223.601 298.024C212.009 298.681 203.218 307.307 204 317.303Z" fill="#FCC9A7"/>
<path d="M215.482 306.647H237.135V272.443H215.482V306.647Z" fill="#FCC9A7"/>
<path d="M240.505 122.188V280.553H210.744L200.227 114.055C199.738 106.141 203.678 98.3633 211.135 93.7353C219.633 88.4775 231.03 88.0119 239.072 113.178C240.049 116.109 240.505 119.148 240.505 122.188Z" fill="#F7E0C6"/>
<path d="M240.506 280.553V269.928H210.094L210.778 280.553H240.506Z" fill="#FFEEE3"/>
<path d="M185.505 507.79C184.984 506.448 183.128 505.901 181.793 506.722C179.188 508.31 174.565 510.2 167.955 509.488C161.084 508.749 158.642 505.599 157.796 503.354C157.34 502.176 155.907 501.546 154.572 501.985L111.787 516.416C109.182 517.293 107.098 519.018 105.991 521.236C104.949 523.317 106.675 525.618 109.312 525.672L181.793 526.603C184.659 526.631 186.938 524.604 186.84 522.167L186.319 510.118C186.319 509.926 186.254 509.734 186.189 509.543L185.505 507.79Z" fill="#0C0C0C"/>
<path d="M202.476 135.99L206.904 219.184L202.476 135.99Z" stroke="#E8CCB1" stroke-width="0.7847" stroke-miterlimit="10" stroke-linecap="round" stroke-linejoin="round"/>
<path d="M134.255 33.6812C134.255 33.6812 110.29 63.4482 102.475 37.9258C94.6606 12.4033 145 19.9889 145 19.9889L134.255 33.6812Z" fill="#0B1226"/>
<path d="M211.204 76.6747C211.204 76.6747 174.801 107.428 170.373 90.2027C170.373 90.2027 174.313 81.9052 188.314 75.7163L211.204 76.6747Z" fill="#FCC9A7"/>
<path d="M65.8412 161.924L57.6684 183.53L67.6321 189.171L76.5863 166.853L65.8412 161.924Z" fill="#FFEEE3"/>
</svg>
