<svg width="500" height="500" viewBox="0 0 500 500" fill="none" xmlns="http://www.w3.org/2000/svg">
<path d="M115.001 212.09C115.001 212.09 88.0855 132.45 181.966 142.17C275.846 151.89 230.991 116.64 266.466 94.765C301.941 72.89 406.466 140.945 362.736 206.585C319.006 272.225 432.621 212.18 456.321 310.89C470.946 371.805 434.661 416.64 404.726 442.055" stroke="#CCDDE2" stroke-width="5.47" stroke-miterlimit="10"/>
<path d="M413.881 365.95C406.826 325.095 381.846 288.535 341.261 275.45C330.879 272.122 320.263 269.573 309.501 267.825V267.88C308.94 271.272 307.611 274.491 305.616 277.29C301.386 283.085 295.556 287.845 288.806 290.325C281.916 292.875 273.381 293.205 266.986 289.195C263.136 286.785 259.401 282.54 258.726 277.96C257.956 272.8 260.586 267.915 264.286 264.505C232.926 264.76 203.426 269.92 179.786 275.795C180.605 279.226 181.74 282.573 183.176 285.795C185.185 290.287 188.025 294.358 191.546 297.795C195.937 293.445 199.782 288.576 202.996 283.295C206.07 284.301 208.781 286.189 210.791 288.724C212.801 291.258 214.021 294.327 214.301 297.55V297.715C215.541 309.42 204.271 318.215 194.801 323.625C183.861 329.915 171.666 334.625 159.686 338.54C154.746 340.16 148.326 341.54 143.111 339.85C142.549 339.671 142.001 339.452 141.471 339.195C136.271 336.645 132.791 331.3 130.076 326.415C122.341 312.54 117.311 297.415 113.901 281.89C90.236 284.915 87.526 268.89 86.121 264.96L65.876 321.555C64.814 325.623 64.699 329.881 65.54 334C66.381 338.12 68.1555 341.992 70.7265 345.318C73.298 348.645 76.598 351.337 80.3725 353.189C84.147 355.041 88.2965 356.003 92.501 356H176.311L214.381 453.65L225.171 481.365H286.801C281.801 481.365 279.066 480.145 277.081 478.155C275.031 476.104 273.877 473.325 273.871 470.425C273.871 464.425 278.796 459.505 286.801 459.505H287.366C286.761 459.505 286.181 459.45 285.576 459.395C285.951 459.355 286.323 459.293 286.691 459.21C286.295 459.201 285.899 459.171 285.506 459.12C289.117 458.694 292.462 457.012 294.959 454.369C297.455 451.726 298.942 448.289 299.161 444.66C299.171 444.472 299.171 444.283 299.161 444.095V443.805C299.075 440.085 297.653 436.519 295.155 433.761C292.657 431.002 289.25 429.234 285.556 428.78C285.976 428.745 286.376 428.71 286.781 428.71C286.416 428.62 286.011 428.565 285.631 428.51C286.231 428.455 286.836 428.415 287.416 428.415L332.506 428.655L340.801 428.69H350.646C351.101 428.69 351.561 428.69 351.996 428.745L366.621 428.82L376.391 428.875C380.474 428.909 384.378 430.559 387.248 433.464C390.118 436.369 391.721 440.292 391.706 444.375C391.701 446.684 391.166 448.961 390.141 451.03C394.333 450.494 398.22 448.555 401.171 445.53C408.206 438.345 411.236 427.59 413.331 418.03C417.036 401 416.816 383.055 413.881 365.95ZM299.961 367.1C291.466 380.175 277.001 379 277.001 379C277.001 379 275.801 380.17 273.001 375.19C270.201 370.21 262.226 366.805 262.226 366.805C261.591 371.805 260.276 379.405 247.226 369.555C234.176 359.705 238.111 345.345 239.226 337.76C240.341 330.175 244.786 327.66 244.786 327.66L250.036 324.89C250.036 324.89 234.851 320.985 234.121 320.84C233.391 320.695 219.866 309.37 233.591 306.38C247.316 303.39 268.711 315.28 272.846 317.63C276.981 319.98 301.146 340.42 301.146 340.42C301.146 340.42 308.501 354.045 299.961 367.1Z" fill="#353642"/>
<path d="M113.881 281.9C113.881 281.9 125.326 280.51 129.611 272.34L125.876 293.295C125.876 293.295 171.406 277.795 179.756 275.795C179.756 275.795 182.446 293.14 193.156 297.795L204.206 283.745C204.206 283.745 218.061 287.245 214.271 306.125C210.481 325.005 158.061 340.785 149.171 340.42C140.281 340.055 130.711 334.585 120.911 305.19L113.881 281.9Z" fill="#353642"/>
<path d="M132.525 235.22C135.425 239.94 138.34 244.65 141.35 249.3C143.205 252.165 146.585 256.25 142.99 259.245C141.82 260.142 140.407 260.665 138.935 260.745C136.625 260.95 134.2 260.395 132.795 258.41L125.795 246.81C124.399 244.496 122.184 242.794 119.59 242.039C116.996 241.285 114.213 241.536 111.795 242.74" stroke="#483A3A" stroke-width="5.47" stroke-miterlimit="10"/>
<path d="M159.001 250.5C160.831 254.85 159.591 257.655 157.451 259.065C153.951 261.36 149.266 260.26 146.786 256.91L132.551 235.245" stroke="#483A3A" stroke-width="5.47" stroke-miterlimit="10"/>
<path d="M144.576 228.92C149.756 235.22 156.291 246.92 159.906 251.805C163.521 256.69 169.111 253.745 169.111 253.745C173.651 251.3 172.881 247.245 170.896 242.32C166.006 230.23 159.026 222.19 151.241 216.92C127.116 200.6 102.366 212.64 95.001 240.81L65.876 321.555C64.814 325.623 64.699 329.881 65.54 334C66.381 338.12 68.1555 341.992 70.7265 345.318C73.298 348.645 76.598 351.337 80.3725 353.189C84.147 355.041 88.2965 356.002 92.501 356H176.311L225.186 481.37" stroke="#483A3A" stroke-width="5.47" stroke-miterlimit="10"/>
<path d="M174.501 236.775C180.501 234.695 180.226 225.125 171.711 221.895C162.306 218.325 145.606 213.275 141.411 212.015C141.385 211.995 141.354 211.983 141.321 211.98C141.026 211.89 140.821 211.815 140.661 211.78L140.426 211.705" stroke="#483A3A" stroke-width="5.47" stroke-miterlimit="10"/>
<path d="M263.149 332.46C257.899 326.15 243.529 322.575 234.149 320.845C232.573 320.549 231.135 319.749 230.053 318.565C228.971 317.381 228.303 315.877 228.149 314.28C228.04 313.203 228.165 312.115 228.514 311.09C229.073 309.516 230.145 308.176 231.556 307.284C232.968 306.392 234.638 306 236.299 306.17C252.299 307.79 268.799 312.825 281.004 323.67C281.004 323.67 340.169 368.82 347.234 373.215C350.149 374.985 352.869 372.895 350.894 370.115L350.274 369.055C346.797 363.087 342.681 357.514 337.999 352.435" stroke="#483A3A" stroke-width="5.47" stroke-miterlimit="10"/>
<path d="M264.245 264.5C189.835 265.12 125.875 293.29 125.875 293.29L132.26 257.5" stroke="#483A3A" stroke-width="5.47" stroke-miterlimit="10"/>
<path d="M379.815 459.285C379.815 459.285 371.71 457.45 369.555 463.94C367.4 470.43 365.15 480.755 380.645 481.365C396.14 481.975 387.04 478.93 386.145 473.915C385.25 468.9 379.815 459.285 379.815 459.285Z" fill="#353642"/>
<path d="M255.999 340.695C255.999 340.695 247.254 334.065 239.379 340.785C239.048 341.077 238.758 341.413 238.519 341.785" stroke="#483A3A" stroke-width="5.47" stroke-miterlimit="10"/>
<g opacity="0.77">
<path opacity="0.77" d="M146.756 256.885C149.256 260.24 153.936 261.335 157.421 259.035C159.536 257.635 160.776 254.845 158.991 250.535C159.316 251.01 159.611 251.43 159.901 251.815C163.511 256.72 169.106 253.765 169.106 253.765C173.646 251.32 172.881 247.265 170.896 242.335C168.954 237.452 166.405 232.833 163.311 228.585C165.336 226.69 167.741 224.775 170.276 225.615C173.011 226.525 173.776 229.955 174.086 232.815C174.231 234.145 174.376 235.46 174.521 236.79L176.711 256.37C177.441 262.87 178.171 269.465 179.756 275.81C180.575 279.241 181.71 282.588 183.146 285.81C185.155 290.302 187.995 294.373 191.516 297.81C195.907 293.46 199.752 288.591 202.966 283.31C206.04 284.316 208.751 286.204 210.761 288.739C212.771 291.273 213.991 294.343 214.271 297.565V297.73C215.511 309.435 204.241 318.23 194.771 323.64C183.831 329.93 171.636 334.64 159.656 338.555C154.716 340.175 148.296 341.555 143.081 339.865C142.519 339.686 141.971 339.467 141.441 339.21C136.241 336.66 132.761 331.315 130.046 326.43C117.046 303.055 111.646 276.215 108.801 249.635C114.491 248.85 120.161 247.975 125.761 246.77C125.761 246.77 125.761 246.81 125.796 246.825L132.251 257.53L132.781 258.42C134.181 260.42 136.606 260.955 138.921 260.755C140.393 260.682 141.807 260.159 142.971 259.255C146.561 256.255 143.191 252.185 141.331 249.32" fill="white"/>
<path opacity="0.77" d="M146.756 256.885C149.256 260.24 153.936 261.335 157.421 259.035C159.536 257.635 160.776 254.845 158.991 250.535C159.316 251.01 159.611 251.43 159.901 251.815C163.511 256.72 169.106 253.765 169.106 253.765C173.646 251.32 172.881 247.265 170.896 242.335C168.954 237.452 166.405 232.833 163.311 228.585C165.336 226.69 167.741 224.775 170.276 225.615C173.011 226.525 173.776 229.955 174.086 232.815C174.231 234.145 174.376 235.46 174.521 236.79L176.711 256.37C177.441 262.87 178.171 269.465 179.756 275.81C180.575 279.241 181.71 282.588 183.146 285.81C185.155 290.302 187.995 294.373 191.516 297.81C195.907 293.46 199.752 288.591 202.966 283.31C206.04 284.316 208.751 286.204 210.761 288.739C212.771 291.273 213.991 294.343 214.271 297.565V297.73C215.511 309.435 204.241 318.23 194.771 323.64C183.831 329.93 171.636 334.64 159.656 338.555C154.716 340.175 148.296 341.555 143.081 339.865C142.519 339.686 141.971 339.467 141.441 339.21C136.241 336.66 132.761 331.315 130.046 326.43C117.046 303.055 111.646 276.215 108.801 249.635C114.491 248.85 120.161 247.975 125.761 246.77C125.761 246.77 125.761 246.81 125.796 246.825L132.251 257.53L132.781 258.42C134.181 260.42 136.606 260.955 138.921 260.755C140.393 260.682 141.807 260.159 142.971 259.255C146.561 256.255 143.191 252.185 141.331 249.32" fill="#99BC62"/>
<path opacity="0.77" d="M148.291 258.47C150.506 261.47 154.291 261.09 157.421 259.035C159.311 257.785 160.861 258.15 159.266 254.295C159.561 254.715 159.601 253.295 159.861 253.61C163.086 257.99 159.901 251.8 159.901 251.8C164.401 257.485 174.196 252.13 172.401 247.735C170.501 243 168.501 236 165.966 232.5C167.966 230.61 167.581 230.89 170.126 232.395C170.81 232.835 171.382 233.427 171.798 234.125C172.214 234.824 172.461 235.609 172.521 236.42C172.726 238.325 172.931 240.15 173.136 242.01L175.086 259.51C175.741 265.325 176.391 271.2 177.806 276.86C178.538 279.92 179.552 282.907 180.836 285.78C182.626 289.735 188.376 296.32 191.516 299.335C195.421 295.46 200.101 288.335 202.966 283.6C208.466 285.29 208.226 290.55 208.616 296.295V296.445C209.726 306.89 199.666 314.735 191.236 319.57C181.466 325.185 170.581 329.385 159.886 332.885C155.476 334.335 149.746 335.585 145.091 334.055C144.589 333.896 144.1 333.701 143.626 333.47C138.986 331.19 135.876 326.425 133.451 322.06C122.836 302.995 117.911 281.35 115.201 259.65C115.003 258.026 115.442 256.389 116.427 255.083C117.412 253.777 118.866 252.904 120.481 252.65C123.526 252.15 126.561 251.65 129.576 250.98L129.661 251.02L135.421 260.575C136.676 262.35 136.881 260.96 138.946 260.78C140.251 260.665 142.781 260.41 143.791 259.565C146.996 256.895 145.186 255.79 143.526 253.235" fill="#99BC62"/>
</g>
<path d="M254.945 350.345C254.945 350.345 238.34 344.885 238.09 354.065" stroke="#483A3A" stroke-width="5.47" stroke-miterlimit="10"/>
<path opacity="0.54" d="M106.31 443.86L73.7445 360.43C73.341 358.815 73.311 357.131 73.6565 355.503C74.002 353.875 74.7135 352.347 75.738 351.035C76.762 349.724 78.072 348.663 79.5675 347.934C81.0635 347.204 82.7055 346.825 84.3695 346.825H213.72C216.624 346.825 219.445 347.802 221.726 349.599C224.007 351.397 225.617 353.911 226.295 356.735L261.945 440.145C262.33 441.754 262.346 443.43 261.991 445.046C261.636 446.662 260.919 448.176 259.894 449.475C258.87 450.775 257.564 451.825 256.076 452.547C254.587 453.269 252.954 453.645 251.3 453.645H118.855C115.972 453.647 113.172 452.685 110.899 450.912C108.625 449.139 107.01 446.656 106.31 443.86Z" fill="white"/>
<path d="M260.351 364.42C260.351 364.42 263.046 366.89 262.021 370.42C261.261 373.035 258.661 374.685 256.086 373.79C247.886 370.955 240.501 366.14 238.701 357.955C237.85 353.811 237.666 349.557 238.156 345.355C238.551 341.46 239.126 337.255 240.436 333.55C242.436 327.86 248.561 323.895 254.506 326.635" stroke="#483A3A" stroke-width="5.47" stroke-miterlimit="10"/>
<path d="M106.31 443.86L73.7445 360.43C73.341 358.815 73.311 357.131 73.6565 355.503C74.002 353.875 74.7135 352.347 75.738 351.035C76.762 349.724 78.072 348.663 79.5675 347.934C81.0635 347.204 82.7055 346.825 84.3695 346.825H213.72C216.624 346.825 219.445 347.802 221.726 349.599C224.007 351.397 225.617 353.911 226.295 356.735L261.945 440.145C262.33 441.754 262.346 443.43 261.991 445.046C261.636 446.662 260.919 448.176 259.894 449.475C258.87 450.775 257.564 451.825 256.076 452.547C254.587 453.269 252.954 453.645 251.3 453.645H118.855C115.972 453.647 113.172 452.685 110.899 450.912C108.625 449.139 107.01 446.656 106.31 443.86Z" fill="#99BC62"/>
<path d="M106.31 443.86L73.7445 360.43C73.341 358.815 73.311 357.131 73.6565 355.503C74.002 353.875 74.7135 352.347 75.738 351.035C76.762 349.724 78.072 348.663 79.5675 347.934C81.0635 347.204 82.7055 346.825 84.3695 346.825H213.72C216.624 346.825 219.445 347.802 221.726 349.599C224.007 351.397 225.617 353.911 226.295 356.735L261.945 440.145C262.33 441.754 262.346 443.43 261.991 445.046C261.636 446.662 260.919 448.176 259.894 449.475C258.87 450.775 257.564 451.825 256.076 452.547C254.587 453.269 252.954 453.645 251.3 453.645H118.855C115.972 453.647 113.172 452.685 110.899 450.912C108.625 449.139 107.01 446.656 106.31 443.86Z" stroke="#483A3A" stroke-width="5.47" stroke-linecap="square" stroke-linejoin="round"/>
<path d="M111.076 440.5L81.0305 363.5C80.6595 362.011 80.632 360.456 80.951 358.954C81.2705 357.453 81.9275 356.044 82.8725 354.834C83.8175 353.625 85.026 352.646 86.406 351.973C87.7855 351.3 89.3005 350.95 90.8355 350.95H210.166C212.845 350.949 215.447 351.851 217.551 353.509C219.656 355.167 221.14 357.485 221.766 360.09L254.661 437.045C255.016 438.53 255.03 440.076 254.702 441.567C254.374 443.058 253.712 444.455 252.767 445.654C251.821 446.852 250.616 447.821 249.243 448.487C247.869 449.153 246.363 449.499 244.836 449.5H122.646C119.991 449.503 117.411 448.618 115.315 446.988C113.219 445.358 111.727 443.075 111.076 440.5Z" fill="#99BC62"/>
<path d="M366.461 428.42L389.341 481.365" stroke="#483A3A" stroke-width="5.47" stroke-miterlimit="10"/>
<path d="M475 481.365H25" stroke="#483A3A" stroke-width="5.47" stroke-miterlimit="10"/>
<path d="M262.185 242.405C258.475 246.07 252.935 246.065 249.78 242.675" stroke="#483A3A" stroke-width="5.47" stroke-miterlimit="10"/>
<path d="M163.31 228.57C165.335 226.675 167.74 224.76 170.275 225.6C173.01 226.51 173.775 229.94 174.085 232.8C174.962 240.66 175.837 248.512 176.71 256.355C177.82 266.355 178.99 276.595 183.145 285.785C185.155 290.277 187.994 294.348 191.515 297.785" stroke="#483A3A" stroke-width="5.47" stroke-miterlimit="10"/>
<path d="M214.27 297.725V297.56C213.991 294.337 212.77 291.268 210.76 288.733C208.75 286.199 206.04 284.311 202.965 283.305C199.752 288.585 195.907 293.455 191.516 297.805C180.002 309.253 165.212 316.836 149.195 319.5C149.965 322.565 151.55 325.355 152.645 328.305C153.74 331.255 154.286 334.67 152.956 337.515C151.276 341.145 146.455 340.67 143.105 339.865C143.07 339.865 143.051 339.865 143.016 339.865" stroke="#483A3A" stroke-width="5.47" stroke-miterlimit="10"/>
<path d="M125.77 246.765C120.17 247.97 114.5 248.845 108.81 249.63C111.655 276.21 117.035 303.05 130.055 326.425C132.77 331.31 136.25 336.655 141.45 339.205C141.981 339.462 142.529 339.681 143.09 339.86C148.305 341.575 154.725 340.17 159.665 338.55C171.665 334.63 183.84 329.925 194.78 323.635C204.225 318.22 215.495 309.43 214.28 297.725C214.163 296.436 213.899 295.164 213.495 293.935" stroke="#483A3A" stroke-width="5.47" stroke-miterlimit="10"/>
<path d="M219.41 193.745C220.249 197.244 222.165 200.391 224.887 202.743C227.61 205.095 231.002 206.533 234.585 206.855C234.883 205.411 235.528 204.062 236.465 202.925C240.465 198.21 242.17 207.055 254.965 200.705C272.695 191.885 279.425 196.945 279.425 196.945C280.015 197.385 279.925 201.445 280.025 202.185C280.525 206.4 280.975 210.595 281.47 214.805C281.77 217.375 282.065 219.925 282.345 222.475C282.587 222.042 282.854 221.622 283.145 221.22C284.76 215.505 287.645 208.755 293.865 211.66C295.125 212.274 296.221 213.177 297.065 214.295C301.19 219.715 298.065 224.95 293.75 228.825C292.669 230.027 291.46 231.108 290.145 232.05C290.855 233.52 293.755 239.355 293.755 239.375C294.055 239.965 304.19 228.495 304.945 227.245C306.073 224.183 306.679 220.953 306.735 217.69C306.9 204.275 301.44 188.66 290.575 180.965C287.88 179.06 288.74 177.225 288.575 174.635C288.564 174.495 288.51 174.362 288.422 174.253C288.333 174.144 288.213 174.064 288.078 174.025C287.943 173.985 287.8 173.988 287.666 174.031C287.533 174.075 287.416 174.159 287.33 174.27C283.925 178.19 275.495 177.8 275.495 177.8C246.235 170.47 236.4 183.48 230.495 185.8C228.086 186.713 225.434 186.757 222.995 185.925C222.852 186.733 222.49 187.485 221.95 188.102C221.41 188.719 220.712 189.177 219.93 189.425L220.08 190.78C220.208 191.816 219.971 192.864 219.41 193.745Z" fill="#99BC62"/>
<path d="M234.606 206.875C231.022 206.553 227.63 205.115 224.908 202.763C222.185 200.411 220.27 197.264 219.431 193.765C219.102 192.423 218.895 191.054 218.811 189.675L219.041 189.65C219.355 189.626 219.665 189.559 219.961 189.45C220.742 189.201 221.441 188.744 221.981 188.127C222.521 187.51 222.882 186.757 223.026 185.95C223.117 185.503 223.136 185.043 223.081 184.59L222.331 177.97C222.331 177.97 227.621 181.905 233.491 179.605C239.361 177.305 249.216 164.295 278.491 171.605C278.491 171.605 285.101 171.995 288.491 168.075C288.576 167.963 288.693 167.88 288.827 167.837C288.96 167.793 289.104 167.791 289.239 167.83C289.373 167.87 289.493 167.949 289.582 168.058C289.671 168.167 289.724 168.3 289.736 168.44C289.911 171.035 290.871 172.87 293.571 174.77C304.436 182.47 309.896 198.08 309.726 211.495C309.676 217.06 307.826 222.555 304.971 227.27C304.216 228.52 294.081 239.99 293.781 239.4C293.781 239.4 290.881 233.545 290.171 232.075L290.001 231.75L290.326 231.535C291.533 230.716 292.685 229.819 293.776 228.85C298.086 224.975 301.216 219.74 297.091 214.32C296.247 213.202 295.15 212.299 293.891 211.685C287.651 208.78 284.786 215.53 283.171 221.245C282.857 222.337 282.664 223.461 282.596 224.595C282.521 223.895 282.446 223.22 282.371 222.52C282.091 219.97 281.796 217.42 281.496 214.85C280.996 210.64 280.526 206.445 280.051 202.23C279.976 201.51 280.051 197.43 279.451 196.99C279.451 196.99 272.716 191.93 254.991 200.75C242.196 207.1 240.491 198.25 236.491 202.97C235.554 204.108 234.908 205.457 234.611 206.9C234.519 207.364 234.461 207.833 234.436 208.305C234.426 208.366 234.426 208.429 234.436 208.49C234.376 209.525 234.356 210.555 234.331 211.565C234.236 221.31 235.306 231.49 239.131 240.54C243.781 251.51 256.086 262.33 268.881 257.215C272.881 255.61 276.466 253.025 279.746 250.28" stroke="#483A3A" stroke-width="5.47" stroke-miterlimit="10"/>
<path d="M243.362 230.643C244.635 230.217 245.249 228.623 244.733 227.083C244.218 225.543 242.769 224.641 241.496 225.067C240.223 225.492 239.609 227.086 240.125 228.626C240.64 230.166 242.089 231.069 243.362 230.643Z" fill="#483A3A"/>
<path d="M262.398 230.034C263.671 229.608 264.285 228.015 263.77 226.475C263.255 224.935 261.805 224.032 260.533 224.458C259.26 224.884 258.646 226.478 259.161 228.017C259.676 229.557 261.126 230.46 262.398 230.034Z" fill="#483A3A"/>
<path d="M255.12 233.33C255.12 233.33 248.785 236.925 248.4 233.195C248.28 232.045 246.73 220.78 246.73 220.78C246.73 220.78 241.611 215.355 233.766 219.365" stroke="#483A3A" stroke-width="5.47" stroke-miterlimit="10"/>
<path d="M253.695 217.625C253.695 217.625 263.925 212.515 270.695 219.88" stroke="#483A3A" stroke-width="5.47" stroke-miterlimit="10"/>
<path d="M263.075 258.47L264.25 264.5C260.545 267.915 257.925 272.81 258.69 277.965C259.37 282.535 263.11 286.79 266.945 289.185C273.355 293.185 281.88 292.87 288.78 290.325C295.525 287.825 301.36 283.08 305.59 277.29C307.582 274.491 308.909 271.274 309.47 267.885V267.825" stroke="#483A3A" stroke-width="5.47" stroke-miterlimit="10"/>
<path d="M264.25 264.5L266.54 275.39" stroke="#483A3A" stroke-width="5.47" stroke-miterlimit="10"/>
<path d="M296.636 236.775L300.096 259.75C300.437 261.999 301.574 264.051 303.3 265.533C305.026 267.015 307.226 267.828 309.501 267.825C320.269 269.57 330.892 272.117 341.281 275.445C381.866 288.535 406.846 325.095 413.901 365.945C416.836 383.05 417.056 400.99 413.371 418C411.276 427.575 408.246 438.33 401.211 445.5C392.076 454.85 378.056 451 367.261 446.775C333.746 433.74 305.871 410.55 281.801 384C268.931 369.8 252.301 358.42 252.301 358.42" stroke="#483A3A" stroke-width="5.47" stroke-miterlimit="10"/>
<path d="M122.151 423.265C118.391 423.23 115.116 420.195 114.271 415.97C112.601 407.66 112.161 394.81 124.346 392.005C139.571 388.505 151.281 405.085 157.021 415.565C158.951 419.065 156.766 423.565 153.171 423.565L122.151 423.265Z" fill="#335464"/>
<path d="M127.176 384.95C130.409 382.799 130.458 377.192 127.287 372.427C124.116 367.661 118.925 365.541 115.692 367.692C112.46 369.843 112.41 375.45 115.582 380.215C118.753 384.981 123.944 387.101 127.176 384.95Z" fill="#335464"/>
<path d="M377.385 459.56C377.15 459.595 376.885 459.63 376.655 459.685H376.565L341 459.5L287.635 459.225C287.43 459.225 287.23 459.225 287.03 459.225C286.634 459.216 286.239 459.186 285.845 459.135C289.461 458.715 292.813 457.033 295.31 454.385C297.808 451.738 299.292 448.294 299.5 444.66C299.511 444.472 299.511 444.283 299.5 444.095V443.805C299.486 440.249 298.247 436.808 295.992 434.058C293.737 431.309 290.604 429.42 287.12 428.71C286.755 428.62 286.355 428.565 285.97 428.51C286.575 428.455 287.175 428.415 287.76 428.415L332.845 428.655L341.145 428.69L352.34 428.745C356.174 429.095 359.738 430.862 362.338 433.701C364.937 436.54 366.384 440.246 366.395 444.095C366.396 444.822 366.341 445.547 366.23 446.265C365.698 449.93 363.867 453.281 361.072 455.71C358.277 458.139 354.703 459.483 351 459.5H378.09C376.53 459.5 376.965 459.5 377.385 459.56Z" fill="white"/>
<path d="M305.245 478.155C306.26 479.177 307.469 479.987 308.801 480.538C310.132 481.089 311.559 481.37 313 481.365H286.81C281.81 481.365 279.08 480.145 277.09 478.155C275.045 476.101 273.893 473.323 273.885 470.425C273.885 464.425 278.805 459.505 286.81 459.505H313C310.838 459.502 308.723 460.14 306.924 461.34C305.126 462.54 303.723 464.247 302.895 466.244C302.067 468.241 301.851 470.44 302.273 472.56C302.696 474.681 303.739 476.628 305.27 478.155H305.245Z" fill="#335464"/>
<path d="M391.74 444.37C391.733 446.68 391.196 448.957 390.169 451.025C389.437 452.589 388.431 454.01 387.199 455.22C385.169 457.232 382.62 458.64 379.835 459.285C378.687 459.55 377.513 459.685 376.335 459.685C376.575 459.63 376.835 459.595 377.065 459.56C376.645 459.52 376.21 459.505 377.775 459.505H350.68C354.385 459.491 357.962 458.146 360.759 455.716C363.557 453.286 365.387 449.932 365.919 446.265C366.03 445.547 366.085 444.822 366.085 444.095C366.073 440.246 364.625 436.538 362.025 433.7C359.425 430.861 355.859 429.094 352.025 428.745L366.65 428.82L376.419 428.875C380.502 428.91 384.406 430.559 387.276 433.462C390.147 436.366 391.752 440.287 391.74 444.37Z" fill="#99BC62"/>
<path d="M391.74 444.365C391.71 448.451 390.061 452.357 387.156 455.23C384.251 458.102 380.325 459.706 376.24 459.69L287.28 459.23C286.685 459.23 286.09 459.185 285.49 459.125C289.24 458.7 292.704 456.915 295.225 454.106C297.747 451.298 299.15 447.663 299.169 443.889C299.189 440.115 297.824 436.465 295.332 433.631C292.841 430.796 289.395 428.974 285.65 428.51C286.245 428.448 286.843 428.418 287.44 428.42L376.4 428.88C380.485 428.908 384.393 430.553 387.268 433.455C390.143 436.357 391.751 440.28 391.74 444.365Z" stroke="#483A3A" stroke-width="5.47" stroke-linecap="square" stroke-linejoin="round"/>
<path d="M366.075 444.09C366.067 448.174 364.441 452.09 361.553 454.978C358.664 457.866 354.749 459.492 350.665 459.5H287.37C286.772 459.496 286.174 459.463 285.58 459.4C289.327 458.955 292.781 457.151 295.287 454.33C297.793 451.508 299.178 447.866 299.178 444.092C299.178 440.319 297.793 436.677 295.287 433.855C292.781 431.034 289.327 429.23 285.58 428.785C286.175 428.73 286.775 428.69 287.37 428.69H350.665C354.747 428.699 358.66 430.324 361.548 433.21C364.435 436.096 366.063 440.007 366.075 444.09Z" stroke="#483A3A" stroke-width="5.47" stroke-linecap="square" stroke-linejoin="round"/>
<path d="M273.885 470.43C273.885 471.864 274.167 473.284 274.716 474.609C275.265 475.933 276.07 477.137 277.085 478.15C279.085 480.15 281.8 481.365 286.805 481.365H377.77C376.205 481.365 376.63 481.335 377.055 481.295C374.393 480.982 371.939 479.702 370.158 477.699C368.377 475.697 367.393 473.11 367.393 470.43C367.393 467.75 368.377 465.163 370.158 463.16C371.939 461.158 374.393 459.878 377.055 459.565C376.63 459.525 376.205 459.495 377.77 459.495H286.805C278.795 459.5 273.885 464.42 273.885 470.43Z" stroke="#483A3A" stroke-width="5.47" stroke-linecap="square" stroke-linejoin="round"/>
<path d="M302.035 470.43C302.042 473.328 303.196 476.105 305.245 478.155C307.295 480.204 310.072 481.358 312.97 481.365H375.785C376.205 481.365 376.63 481.335 377.055 481.295C374.394 480.982 371.94 479.702 370.159 477.699C368.378 475.697 367.394 473.11 367.394 470.43C367.394 467.75 368.378 465.163 370.159 463.16C371.94 461.158 374.394 459.878 377.055 459.565C376.63 459.525 376.205 459.495 375.785 459.495H312.97C310.073 459.503 307.296 460.657 305.247 462.706C303.198 464.755 302.043 467.532 302.035 470.43Z" stroke="#483A3A" stroke-width="5.47" stroke-linecap="square" stroke-linejoin="round"/>
<path d="M200.209 387H172.149C170.866 386.998 169.61 386.622 168.536 385.919C167.462 385.216 166.615 384.216 166.099 383.04C165.9 382.603 165.815 382.122 165.852 381.642C165.889 381.163 166.046 380.701 166.309 380.298C166.573 379.896 166.934 379.567 167.359 379.342C167.784 379.117 168.259 379.003 168.739 379.01H198.569C197.164 381.375 197.88 384.66 200.209 387Z" fill="#335464"/>
<path d="M218.354 384.11C218.353 384.875 218.049 385.608 217.508 386.148C216.967 386.689 216.234 386.994 215.469 386.995H200.209C197.879 384.66 197.164 381.375 198.569 378.995H212.044C213.327 378.995 214.581 379.368 215.656 380.067C216.731 380.766 217.58 381.763 218.099 382.935C218.261 383.306 218.347 383.705 218.354 384.11Z" fill="#99BC62"/>
<path d="M211.334 387C211.255 387.152 211.163 387.298 211.059 387.435C209.059 390.17 204.714 390.435 201.339 387.965C200.94 387.67 200.563 387.348 200.209 387C197.879 384.665 197.164 381.38 198.569 379C198.648 378.847 198.74 378.702 198.844 378.565C200.844 375.81 205.169 375.565 208.544 378.015C208.95 378.319 209.333 378.654 209.689 379.015C211.999 381.34 212.719 384.605 211.334 387Z" fill="white"/>
<path d="M225.41 401.725C225.404 402.491 225.097 403.223 224.553 403.763C224.01 404.302 223.275 404.605 222.51 404.605H193.065C194.485 402.215 193.775 398.955 191.44 396.605H219.1C220.384 396.606 221.64 396.979 222.716 397.681C223.791 398.384 224.638 399.384 225.155 400.56C225.319 400.926 225.406 401.323 225.41 401.725Z" fill="#99BC62"/>
<path d="M193.066 404.605H179.211C177.928 404.606 176.673 404.234 175.598 403.534C174.523 402.835 173.674 401.838 173.156 400.665C172.992 400.298 172.905 399.902 172.901 399.5C172.9 399.121 172.974 398.747 173.119 398.397C173.263 398.047 173.475 397.73 173.743 397.462C174.01 397.194 174.328 396.982 174.678 396.838C175.027 396.693 175.402 396.619 175.781 396.62H191.441C193.776 398.955 194.501 402.215 193.066 404.605Z" fill="#335464"/>
<path d="M193.066 404.605C193 404.762 192.915 404.91 192.811 405.045C190.811 407.795 186.481 408.045 183.111 405.59C182.703 405.286 182.319 404.952 181.961 404.59C179.646 402.255 178.936 398.995 180.321 396.59C180.401 396.436 180.492 396.289 180.596 396.15C182.596 393.415 186.941 393.15 190.311 395.625C190.712 395.917 191.09 396.239 191.441 396.59C193.776 398.955 194.501 402.215 193.066 404.605Z" fill="white"/>
<path d="M202.875 422.09H185.245C183.963 422.089 182.709 421.716 181.634 421.017C180.56 420.318 179.711 419.321 179.19 418.15C178.992 417.711 178.907 417.229 178.944 416.749C178.982 416.268 179.139 415.806 179.403 415.402C179.667 414.999 180.028 414.668 180.453 414.442C180.878 414.215 181.353 414.1 181.835 414.105H201.235C199.845 416.5 200.56 419.755 202.875 422.09Z" fill="#99BC62"/>
<path d="M231.445 419.23C231.441 419.991 231.136 420.719 230.596 421.255C230.056 421.791 229.326 422.091 228.565 422.09H202.875C200.56 419.755 199.845 416.495 201.235 414.09H225.135C226.419 414.09 227.675 414.465 228.751 415.167C229.826 415.869 230.673 416.869 231.19 418.045C231.355 418.419 231.441 418.822 231.445 419.23Z" fill="#335464"/>
<path d="M214.001 422.09C213.921 422.244 213.829 422.391 213.726 422.53C211.726 425.28 207.401 425.53 204.026 423.075C203.621 422.77 203.238 422.436 202.881 422.075C200.566 419.74 199.851 416.48 201.241 414.075C201.318 413.921 201.408 413.773 201.511 413.635C203.511 410.9 207.856 410.665 211.231 413.11C211.632 413.402 212.01 413.724 212.361 414.075C214.691 416.44 215.401 419.72 214.001 422.09Z" fill="white"/>
<path d="M80.8045 262.685L81.2445 262.81L81.0795 263.45C80.975 263.2 80.8835 262.944 80.8045 262.685Z" fill="#353642"/>
<path d="M159.053 302.687C165.634 300.755 169.092 292.794 166.777 284.906C164.461 277.019 157.249 272.19 150.667 274.122C144.086 276.055 140.627 284.015 142.943 291.903C145.258 299.791 152.471 304.619 159.053 302.687Z" fill="#335464"/>
</svg>
