<svg width="378" height="471" viewBox="0 0 378 471" fill="none" xmlns="http://www.w3.org/2000/svg">
<g clip-path="url(#clip0_36_140)">
<path d="M346.448 306.826H227.918V457.917H346.448V306.826Z" fill="#B2B2B2"/>
<path d="M228.383 306.826H109.853V457.917H228.383V306.826Z" fill="#D1D1D1"/>
<path d="M166.284 123.601L161.231 204.817L137.471 264.374H180.247L202.464 213.06L209.407 154.743L166.284 123.601Z" fill="#F7EBE7"/>
<path d="M165.086 407.471L173.688 439.666L144.798 442.424L136.582 410.724L165.086 407.471Z" fill="#FCC9A7"/>
<path d="M175.434 436.753C174.701 435.018 172.386 434.398 170.805 435.514C167.719 437.714 162.165 440.41 153.949 439.759C145.425 439.077 142.224 435.049 140.989 432.136C140.334 430.618 138.521 429.843 136.901 430.494L85.1765 451.379C82.0522 452.65 79.5833 455.005 78.349 457.948C77.1918 460.706 79.5065 463.681 82.7465 463.619L172.116 461.636C175.626 461.574 178.326 458.785 178.018 455.562L176.552 439.759C176.513 439.511 176.475 439.232 176.359 438.984L175.434 436.753Z" fill="#1F252A"/>
<path d="M164.588 251.793H97.512C97.512 251.793 56.6649 249.965 54.2349 276.893C51.8049 303.82 114.136 380.853 123.895 422.004L179.978 418.285L139.593 306.392L240.033 306.857C247.478 306.888 254.883 306.02 261.903 304.068C281.459 298.615 311.313 290.806 295.036 247.548L164.588 251.793Z" fill="#092330"/>
<path d="M216.359 407.595L230.014 446.08L201.123 448.838L187.855 410.848L216.359 407.595Z" fill="#FCC9A7"/>
<path d="M231.739 443.168C231.006 441.432 228.692 440.813 227.11 441.928C224.024 444.128 218.47 446.824 210.254 446.173C201.73 445.492 198.529 441.463 197.294 438.551C196.639 437.032 194.826 436.258 193.206 436.908L141.482 457.793C138.357 459.064 135.889 461.419 134.654 464.363C133.497 467.12 135.812 470.095 139.052 470.033L229.964 468.05C233.474 467.988 236.174 465.199 235.866 461.977L232.819 446.173C232.78 445.925 232.742 445.647 232.626 445.399L231.739 443.168Z" fill="#1F252A"/>
<path d="M244.737 91.6842C246.242 92.8617 313.549 106.651 313.549 106.651L299.162 137.359L225.568 132.897L244.737 91.6842Z" fill="#F7EBE7"/>
<path d="M216.977 99.0907C216.977 99.0907 173.121 111.95 166.294 123.601C168.647 140.055 175.86 155.89 187.74 169.431C202.32 186.04 220.333 214.579 217.016 251.794H343.8C343.8 251.794 336.973 147.089 299.443 106.899L216.977 99.0907Z" fill="#F7EBE7"/>
<path d="M231.358 115.699C243.817 113.654 251.839 103.893 249.294 93.8842L241.849 64.6017L196.759 72.0075L204.204 101.29C206.749 111.299 218.899 117.744 231.358 115.699Z" fill="#FCC9A7"/>
<path d="M244.948 74.8276C244.948 74.8276 240.204 98.5636 217.215 99.989C197.081 101.228 199.009 77.8334 199.009 77.8334L244.948 74.8276Z" fill="#F4BE9A"/>
<path d="M219.021 86.9745L222.994 86.2308C242.936 82.5124 255.356 66.5232 250.727 50.534L245.481 32.2827C240.852 16.2625 220.95 6.28476 201.047 10.0032L197.074 10.7469C177.132 14.4653 164.712 30.4545 169.341 46.4437L174.587 64.695C179.216 80.7151 199.118 90.6929 219.021 86.9745Z" fill="#FCC9A7"/>
<path d="M238.229 58.126C237.303 59.3965 236.416 61.3177 236.107 64.2305C235.76 67.9179 233.446 71.4194 229.589 73.4645C218.519 79.352 210.072 64.4474 193.718 67.0812C193.718 67.0812 187.315 67.8559 186.042 73.5885C184.769 79.2901 175.859 69.3123 173.892 62.4952C171.924 55.6781 170.922 96.2399 211.191 92.8003C211.191 92.8003 231.518 92.2735 245.211 75.6336C246.715 73.8054 247.602 71.6673 247.679 69.4672C247.794 66.2136 247.216 61.2867 243.359 57.7542C242.009 56.4528 239.309 56.6387 238.229 58.126Z" fill="#1C2226"/>
<path d="M238.269 48.9227C238.269 48.9227 220.873 44.3056 223.805 23.8853C223.805 23.8853 180.605 56.7313 148.59 32.6236C148.59 32.6236 162.901 29.5559 168.802 21.6852C179.564 7.33831 210.498 -12.4313 235.261 10.437C235.261 10.437 265.385 6.68762 256.745 43.9648L238.269 48.9227Z" fill="#1C2226"/>
<path d="M238.27 48.923C239.929 54.6245 247.026 58.188 254.123 56.8866C261.259 55.5541 265.656 49.8526 264.036 44.151C262.377 38.4494 255.28 34.8859 248.183 36.1874C241.047 37.5198 236.611 43.2214 238.27 48.923Z" fill="#FCC9A7"/>
<path d="M216.274 114.553L234.904 114.832L221.867 136.523L207.789 115.731L216.274 114.553Z" fill="#0C2C40"/>
<path d="M250.87 92.6454L226.878 115.142L242.5 129.551L271.235 97.8202C271.235 97.8202 263.868 88.3072 250.87 92.6454Z" fill="#FFF7F3"/>
<path d="M216.28 114.552L202.472 127.071L192.752 107.549C192.752 107.549 195.298 98.7802 203.243 100.453L216.28 114.552Z" fill="#FFF7F3"/>
<path d="M221.363 129.52C221.363 129.52 203.35 167.262 207.825 220.807L225.567 233.821L246.28 217.801L223.948 127.072L221.363 129.52Z" fill="#0C2C40"/>
<path d="M255.038 219.134L216.467 229.328L213.921 247.518L265.066 235.247L255.038 219.134Z" fill="#FCC9A7"/>
<path d="M222.217 241.351C222.217 251.979 211.494 260.625 198.226 260.625C184.996 260.625 174.234 252.01 174.234 241.351C174.234 230.722 184.957 222.077 198.226 222.077C211.456 222.077 222.217 230.691 222.217 241.351Z" fill="#FCC9A7"/>
<path d="M216.978 251.794H149.941C149.941 251.794 109.093 249.965 106.663 276.893C104.233 303.82 171.155 385.811 180.913 426.931L236.996 423.212L192.022 306.361L292.462 306.826C299.906 306.857 307.312 305.989 314.332 304.037C333.887 298.584 363.742 290.775 347.465 247.517L216.978 251.794Z" fill="#0C2C40"/>
<path d="M14.7425 156.571H130.65C134.468 156.571 137.747 158.709 138.557 161.715L160.388 243.954C161.468 247.982 157.611 251.794 152.481 251.794H34.6453C30.7882 251.794 27.4711 249.594 26.7382 246.557L6.83537 164.318C5.83251 160.29 9.65104 156.571 14.7425 156.571Z" fill="#B2B2B2"/>
<path d="M8.06779 156.571H123.937C127.755 156.571 131.034 158.709 131.844 161.715L153.675 243.954C154.755 247.982 150.937 251.794 145.768 251.794H27.9706C24.1135 251.794 20.7964 249.594 20.0635 246.557L0.160687 164.318C-0.842169 160.29 2.97635 156.571 8.06779 156.571Z" fill="#D1D1D1"/>
<path d="M157.23 244.76H236.417C238.847 244.76 240.776 246.34 240.776 248.261C240.776 250.213 238.808 251.763 236.417 251.763H155.687L157.23 244.76Z" fill="#B2B2B2"/>
<path d="M79.8132 202.029C79.8132 207.637 74.1818 212.161 67.2003 212.161C60.2189 212.161 54.5875 207.606 54.5875 202.029C54.5875 196.42 60.2575 191.896 67.2003 191.896C74.1818 191.896 79.8132 196.42 79.8132 202.029Z" fill="white"/>
<path d="M285.893 135.902L328.244 190.842L226.878 219.908L240.764 244.016C240.764 244.016 327.434 236.207 369.323 210.271C373.18 207.885 375.108 204.011 374.453 200.138C372.485 187.743 364.077 157.655 328.244 114.893C320.954 106.186 306.451 103.552 295.15 108.82C283.385 114.274 279.258 126.358 285.893 135.902Z" fill="#F7EBE7"/>
<path d="M253.848 212.162L328.252 190.843L291.031 142.534" stroke="#EADDD8" stroke-width="0.7599" stroke-miterlimit="10" stroke-linecap="round" stroke-linejoin="round"/>
<path d="M203.464 193.972L185.143 155.114" stroke="#EADDD8" stroke-width="0.7599" stroke-miterlimit="10" stroke-linecap="round" stroke-linejoin="round"/>
<path d="M255.039 242.373C255.039 242.373 311.97 236.641 340.667 223.441" stroke="#EADDD8" stroke-width="0.7599" stroke-miterlimit="10" stroke-linecap="round" stroke-linejoin="round"/>
</g>
<defs>
<clipPath id="clip0_36_140">
<rect width="378" height="471" fill="white"/>
</clipPath>
</defs>
</svg>
