<svg width="87" height="189" viewBox="0 0 87 189" fill="none" xmlns="http://www.w3.org/2000/svg">
<g clip-path="url(#clip0_8_165)">
<path d="M27.8966 84.3031C30.4866 82.7431 33.8566 83.5731 35.4166 86.1731C36.9766 88.7631 36.1466 92.1331 33.5466 93.6931C30.9566 95.2531 27.5866 94.4231 26.0266 91.8231C24.4666 89.2431 25.3066 85.8731 27.8966 84.3031Z" fill="#FCC9A7"/>
<path d="M34.105 84.6932C33.925 84.5532 24.305 73.2532 24.305 73.2532L20.375 78.0132L29.055 89.0032L34.105 84.6932Z" fill="#FCC9A7"/>
<path d="M25.9947 172.793L23.5447 183.983L15.8047 182.823L18.3047 171.783L25.9947 172.793Z" fill="#FCC9A7"/>
<path d="M60.6926 171.793L60.7827 183.253L52.9927 183.833L52.9727 172.513L60.6926 171.793Z" fill="#FCC9A7"/>
<path d="M24.5235 182.163C24.3635 181.693 23.7935 181.493 23.3835 181.793C22.5835 182.373 21.1735 183.053 19.1335 182.813C17.0135 182.563 16.2535 181.443 15.9935 180.643C15.8535 180.223 15.4035 180.003 14.9935 180.163L1.86354 185.423C1.06354 185.743 0.423517 186.363 0.0935172 187.153C-0.226483 187.893 0.313546 188.723 1.12355 188.723L23.4335 188.883C24.3135 188.893 25.0135 188.163 24.9735 187.283L24.7835 182.973C24.7835 182.903 24.7635 182.833 24.7435 182.763L24.5235 182.163Z" fill="#0C0C0C"/>
<path d="M52.2016 182.163C52.3616 181.693 52.9416 181.493 53.3416 181.793C54.1416 182.373 55.5516 183.053 57.5916 182.813C59.7116 182.563 60.4616 181.443 60.7316 180.643C60.8716 180.223 61.3216 180.003 61.7316 180.163L74.8616 185.423C75.6616 185.743 76.3016 186.363 76.6316 187.153C76.9516 187.893 76.4116 188.723 75.6016 188.723L53.2916 188.883C52.4116 188.893 51.7116 188.163 51.7516 187.283L51.9416 182.973C51.9416 182.903 51.9616 182.833 51.9816 182.763L52.2016 182.163Z" fill="#0C0C0C"/>
<path d="M52.1024 28.1233L45.1724 28.7233L34.1523 34.9333V79.0933H63.5624V34.9333L52.1024 28.1233Z" fill="#54585A"/>
<path d="M50.2043 32.5733H48.2144C46.1544 32.5733 44.4844 30.9033 44.4844 28.8433V21.3633H53.9244V28.8433C53.9344 30.9033 52.2643 32.5733 50.2043 32.5733Z" fill="#FCC9A7"/>
<path d="M44.4844 25.1733C44.4844 25.1733 45.9544 28.1233 49.2944 28.1233C52.6344 28.1233 53.9244 25.1133 53.9244 25.1133L44.4844 25.1733Z" fill="#F4BE9A"/>
<path d="M49.3143 26.3933H49.0043C44.1943 26.3933 40.2342 22.5933 40.0442 17.7833L39.8743 12.9933C39.6743 7.90334 43.7442 3.67334 48.8342 3.67334H49.4842C53.3342 3.67334 58.6442 7.90334 58.4442 12.9933L58.2742 17.7833C58.0842 22.5933 54.1243 26.3933 49.3143 26.3933Z" fill="#FCC9A7"/>
<path d="M42.7927 16.6232C42.9027 18.2432 41.6827 19.6432 40.0627 19.7532C38.4427 19.8632 37.0427 18.6432 36.9327 17.0232C36.8227 15.4032 38.0427 14.0032 39.6627 13.8932C41.2827 13.7932 42.6827 15.0132 42.7927 16.6232Z" fill="#FCC9A7"/>
<path d="M61.3747 16.6232C61.4847 18.2432 60.2647 19.6432 58.6447 19.7532C57.0247 19.8632 55.6247 18.6432 55.5147 17.0232C55.4047 15.4032 56.6247 14.0032 58.2447 13.8932C59.8647 13.7932 61.2647 15.0132 61.3747 16.6232Z" fill="#FCC9A7"/>
<path d="M34.1533 78.8833L15.8633 176.113L26.3733 176.013L53.1133 79.0733L34.1533 78.8833Z" fill="#0C0C0C"/>
<path d="M63.565 79.0933L62.415 176.213H51.305L46.875 79.7033L63.565 79.0933Z" fill="#0C0C0C"/>
<path d="M34.1521 34.9331C34.1521 34.9331 9.59214 49.7531 3.62214 60.0331C2.45214 62.0431 3.97211 64.6431 6.03211 65.7131C8.31211 66.9031 11.1221 66.0931 12.4321 63.8831L35.1521 50.7031C35.1621 50.7031 34.1521 39.3831 34.1521 34.9331Z" fill="#54585A"/>
<path d="M39.365 7.55322L40.0551 14.9132H41.165L41.3051 11.0532C41.3051 11.0532 41.885 9.57322 44.475 6.39322C44.475 6.39322 46.165 10.7132 56.635 9.87322L57.2451 14.7532L58.325 14.6332L58.895 9.39322C59.275 7.62322 59.405 5.97322 59.085 4.19322C58.435 0.593221 55.505 -1.39678 47.045 1.14322C46.345 1.35322 47.775 1.21322 47.045 1.14322C44.625 0.873222 38.245 0.843221 39.365 7.55322Z" fill="#2E2A33"/>
<path d="M51.8219 78.3933L49.4419 103.853C49.3519 104.813 50.0019 105.683 50.9519 105.863L80.1519 111.443C81.2219 111.653 82.242 110.893 82.3619 109.813L85.0319 85.6133C85.1319 84.6733 84.5219 83.8033 83.5919 83.5833L54.1019 76.7433C53.0019 76.4833 51.9319 77.2633 51.8219 78.3933Z" fill="#AFAFAF"/>
<path d="M53.4429 78.8432L51.063 104.303C50.973 105.263 51.6229 106.133 52.5729 106.313L81.773 111.893C82.843 112.093 83.863 111.343 83.983 110.263L86.653 86.0633C86.753 85.1233 86.143 84.2533 85.213 84.0333L55.723 77.1933C54.633 76.9333 53.5529 77.7132 53.4429 78.8432Z" fill="#D1D1D1"/>
<path d="M68.6441 104.833C71.5441 105.693 73.2041 108.743 72.3441 111.643C71.4841 114.543 68.4341 116.203 65.5341 115.353C62.6341 114.493 60.974 111.443 61.824 108.543C62.694 105.633 65.7341 103.973 68.6441 104.833Z" fill="#FCC9A7"/>
<path d="M72.5524 109.673C72.5324 109.443 71.5923 94.1831 71.5923 94.1831L66.4023 95.1231L67.0923 108.133L72.5524 109.673Z" fill="#FCC9A7"/>
<path d="M63.5616 34.9331C63.5616 34.9331 71.4216 40.5631 71.9216 48.5831L74.3815 67.3331C74.5215 68.4331 74.5816 69.5331 74.5416 70.6431L73.5916 99.1631H62.8016L62.6016 68.2931L63.5616 34.9331Z" fill="#54585A"/>
<path d="M46.0033 28.1233C45.1633 28.7333 41.1133 31.0133 41.1133 31.0133C41.1133 31.0133 41.2233 36.7133 49.8033 36.2533C57.3533 35.8533 57.3033 31.2233 57.3033 31.2233L52.0933 28.1233H46.0033Z" fill="#FCC9A7"/>
<path d="M15.7241 56.3333L30.4041 79.7932L23.444 86.3832L3.66406 63.2933L15.7241 56.3333Z" fill="#54585A"/>
<path d="M62.5923 78.7833V68.2833L60.1523 49.1333" stroke="#424647" stroke-width="0.7693" stroke-miterlimit="10" stroke-linecap="round" stroke-linejoin="round"/>
</g>
<defs>
<clipPath id="clip0_8_165">
<rect width="87" height="189" fill="white"/>
</clipPath>
</defs>
</svg>
