<svg width="80" height="165" viewBox="0 0 80 165" fill="none" xmlns="http://www.w3.org/2000/svg">
<path d="M13.8875 164.75C17.7533 164.869 21.619 164.824 25.4847 164.794C36.27 164.69 47.0553 164.602 57.8405 164.499C59.5175 164.484 61.6886 164.217 61.7945 163.271C61.9004 162.412 60.1882 161.865 58.7407 161.599C53.5688 160.651 48.132 160.459 42.7659 160.281C34.8755 160.015 26.9675 159.793 19.0772 159.616C14.1523 159.497 9.08622 159.409 4.49674 160.34C1.99018 160.844 -1.69905 163.033 2.30792 164.128C3.41998 164.425 5.64411 164.306 6.84444 164.395C9.19213 164.528 11.5398 164.676 13.8875 164.75Z" fill="url(#paint0_linear_8_112)"/>
<path opacity="0.22" d="M13.8916 164.75C17.7574 164.869 21.6231 164.824 25.4888 164.794C36.2741 164.69 47.0594 164.602 57.8446 164.499C59.5216 164.484 61.6927 164.217 61.7986 163.271C61.9045 162.412 60.1923 161.865 58.7448 161.599C53.5729 160.651 48.1361 160.459 42.77 160.281C34.8797 160.015 26.9716 159.793 19.0812 159.616C14.1564 159.497 9.0903 159.409 4.50083 160.34C1.99427 160.844 -1.69495 163.033 2.312 164.128C3.42407 164.425 5.6482 164.306 6.84852 164.395C9.19622 164.528 11.5439 164.676 13.8916 164.75Z" fill="url(#paint1_linear_8_112)"/>
<path d="M47.9976 105.15C49.145 105.949 51.3691 106.186 52.7988 106.512C54.7405 106.955 56.6999 107.325 58.677 107.666C62.4721 108.302 66.4791 109.071 70.3624 109.249C70.4506 109.249 70.539 109.249 70.6272 109.249C70.7332 109.264 70.8391 109.264 70.945 109.249C73.0279 109.219 76.47 108.612 77.2114 107.104C77.8292 105.86 77.7762 104.055 77.9527 102.739C78.1998 100.963 78.394 99.2021 78.5353 97.4268C78.8353 93.8753 79.0472 90.3097 79.1001 86.7436C79.1001 86.5661 78.8882 86.3737 78.6412 86.3886C78.5176 86.3886 78.394 86.4034 78.2704 86.4034C78.2529 86.3442 78.1998 86.2998 78.0939 86.2702C74.6165 85.5007 71.1038 84.7906 67.6087 84.11C67.6971 83.888 67.6617 83.6217 67.5381 83.385C67.5205 83.3554 67.5028 83.3405 67.4675 83.3257C67.2557 82.1272 66.126 80.8547 64.7668 80.3961C62.5426 79.6267 61.3423 80.4553 59.8066 81.6094C59.6478 81.7425 58.7476 82.3639 58.8535 82.4823C57.7591 82.29 56.6646 82.0829 55.5879 81.8905C53.9816 81.6094 51.8986 80.9139 50.257 81.0322C47.4151 81.2394 48.2447 85.4416 48.1741 86.862C47.9976 90.443 47.7858 94.0236 47.6268 97.6192C47.5386 99.4095 47.4503 101.2 47.3798 102.99C47.3444 103.804 47.1856 104.588 47.9976 105.15ZM65.7023 83.7697C64.7844 83.5921 63.8665 83.4293 62.9663 83.2517C62.3661 83.1334 61.0422 82.8375 60.4421 82.7339C61.0599 81.8757 63.0016 81.2542 64.0431 81.491C64.7315 81.639 65.3317 83.089 65.7023 83.7697Z" fill="#494949"/>
<path d="M10.2912 121.338C11.209 110.314 9.28503 99.0688 9.46155 87.9715C8.86138 84.1244 9.83223 80.2033 12.3035 76.593C12.4623 76.3711 12.6213 76.1344 12.9213 75.9716C13.8745 75.4389 15.4985 75.7201 16.7518 76.0012C28.808 78.7237 43.0529 78.0727 54.0501 74.2405C56.2212 76.0456 56.839 78.2651 57.3862 80.4105C58.2511 83.8729 59.2044 87.3351 59.4339 90.8127V90.8268C59.4868 91.5821 59.5044 92.3215 59.4868 93.0759C59.3279 97.4118 57.8099 101.688 56.6096 105.964C55.8328 108.761 55.1444 111.557 55.0739 114.398C55.0209 116.706 55.621 118.822 54.6679 121.085C52.3378 126.664 52.3378 132.746 51.3494 138.442C50.2902 144.538 49.2487 150.649 48.3838 156.76C48.3485 156.996 48.3132 157.248 48.2779 157.485C47.713 157.573 39.1166 158.654 39.1166 157.426C38.4282 145.559 37.7398 133.692 37.0514 121.826C36.7689 116.839 37.422 99.9715 35.1097 95.2068C34.1564 95.2659 33.2033 95.31 32.2501 95.37C27.0075 111.069 20.794 138.575 15.5515 154.274C15.0925 155.65 14.5276 157.144 12.8683 158.032C11.209 158.92 8.08471 158.668 7.59045 157.293C9.12616 145.322 9.30269 133.337 10.2912 121.338Z" fill="#333333"/>
<path d="M58.8653 86.7139C58.8653 86.7139 53.9581 86.6251 52.1576 84.598C50.3571 82.5709 46.156 76.3416 46.156 76.3416L45.4852 76.4747C45.4852 76.4747 48.3978 81.0321 48.7861 81.5351C49.1744 82.0382 50.9396 87.498 58.8653 87.1577V86.7139Z" fill="#636363"/>
<path d="M21.8394 76.9185C21.8394 76.9185 19.421 87.7198 9.46545 88.6077V88.1489C9.46545 88.1489 18.2561 88.4595 21.045 76.8L21.8394 76.9185Z" fill="#636363"/>
<path d="M40.7749 157.603C43.3167 157.44 45.8939 157.529 48.4181 157.855C50.3598 159.009 52.4957 159.956 54.7375 160.666C55.3906 160.873 56.079 161.081 56.5556 161.479C57.0322 161.879 57.2264 162.574 56.7851 163.004C56.3967 163.374 55.6907 163.418 55.0905 163.418C50.3775 163.463 45.6821 163.137 41.0397 162.471C40.7573 162.427 40.4748 162.382 40.263 162.22C40.1041 162.086 40.0335 161.909 39.9629 161.746C39.4863 160.355 39.7864 158.816 40.7749 157.603Z" fill="#7A4135"/>
<path d="M8.21029 156.331C10.4874 156.538 12.7468 156.967 14.9003 157.618C16.3654 158.906 18.0248 160.03 19.8605 160.976C20.39 161.258 20.9549 161.524 21.2903 161.953C21.6257 162.382 21.6433 163.004 21.1491 163.33C20.7254 163.61 20.09 163.551 19.5604 163.463C15.3945 162.841 11.317 161.909 7.38066 160.681C7.15118 160.607 6.88641 160.518 6.74518 160.355C6.63928 160.222 6.60397 160.06 6.58632 159.896C6.46275 158.594 7.08057 157.263 8.21029 156.331Z" fill="#7A4135"/>
<path d="M23.2437 25.1905C22.873 24.5987 22.3081 24.0512 21.8845 23.4594C21.5667 23.0155 20.1194 21.3582 19.3603 22.2756C19.0249 22.6751 19.272 23.3854 19.4485 23.7997C19.6603 24.288 20.0134 24.6875 20.49 25.013C20.5077 25.0425 20.5077 25.0574 20.5253 25.0869C20.9842 25.6049 22.1669 27.2028 23.1907 26.3003C23.579 26.0043 23.4732 25.5308 23.2437 25.1905Z" fill="#A89288"/>
<path d="M25.5277 24.1106C24.0626 22.2167 23.1624 19.9972 21.609 18.192C21.5031 18.0589 21.3442 18.0144 21.1677 18.0441C20.1793 18.192 18.9436 18.0884 18.6259 19.0206C18.4317 19.6125 18.9083 20.5151 19.3848 21.2549C19.579 21.6692 19.7379 21.8172 19.8615 21.9947C20.7087 23.208 24.0626 29.9995 26.7634 27.0254C27.6283 26.0637 26.1456 24.9096 25.5277 24.1106Z" fill="#191919"/>
<path d="M21.6437 18.7542C21.6437 18.7542 20.2493 18.547 20.2316 18.8725C20.1433 20.0118 24.5563 26.4482 24.5563 26.4482C24.5563 26.4482 24.5386 26.5519 24.8917 26.5075C25.2448 26.4631 26.3568 26.034 26.3568 26.034C26.3568 26.034 24.7681 23.4742 24.6269 23.1635C24.4857 22.8528 21.8909 18.8577 21.8909 18.8577C21.8909 18.8577 21.8556 18.7838 21.6437 18.7542Z" fill="white"/>
<path d="M25.7321 26.5223C25.6792 26.5667 25.6438 26.5963 25.5908 26.6407C25.4673 26.7442 25.5026 26.8922 25.6262 26.9663C25.7321 27.0698 25.9792 27.0697 26.0498 26.9366C26.4735 26.833 26.1027 26.2117 25.7321 26.5223Z" fill="white"/>
<path d="M30.0755 27.706C31.5582 28.2239 33.0057 28.5493 34.0472 28.5641C35.2651 28.5789 36.4124 28.0758 37.4893 27.5728C39.6957 26.5518 42.0434 25.4274 43.1731 23.5334C43.8262 22.4237 44.0028 21.166 44.1263 19.9379C44.4617 16.8306 44.6029 13.7086 44.5676 10.6014C44.5499 9.00333 44.4617 7.30177 43.4025 5.9701C41.6374 3.72105 37.9481 3.33632 34.7355 3.17356C31.5582 3.0108 28.2043 2.87767 25.3977 4.13536C22.4675 5.45223 23.1383 7.3757 22.9264 9.8023C22.644 12.8207 22.4675 15.8393 22.4322 18.8725C22.4145 20.5889 22.4852 22.4088 23.5443 23.8737C24.5681 25.2497 27.3923 26.7738 30.0755 27.706Z" fill="#A89288"/>
<path d="M36.9802 25.7528C36.5036 25.9156 35.974 26.0931 35.4798 25.96C35.0032 25.8268 34.6855 25.442 34.3147 25.1609C33.9264 24.8798 33.2733 24.7318 32.9556 25.0573C33.238 25.3533 33.0085 25.8267 32.6379 26.0339C32.2495 26.2411 31.773 26.2411 31.314 26.2114C30.4666 26.1819 29.3899 25.8711 29.4253 25.1757C29.1958 25.1757 28.9662 25.1905 28.7367 25.1905C28.4367 25.7823 28.6485 26.4925 29.1252 26.9957C29.6017 27.4987 30.3078 27.8095 31.0316 28.0019C33.3616 28.6529 36.0623 28.209 37.9334 26.8773C38.5512 26.4334 39.1161 25.7232 38.7277 25.1165C38.1629 25.3385 37.5803 25.5456 36.9802 25.7528Z" fill="#D7C68E"/>
<path d="M20.1094 8.55933C19.8445 11.2523 19.1561 16.0315 21.9098 17.9994C24.6459 14.7739 22.51 9.60988 26.111 6.63581C28.4586 4.69749 32.6598 4.96377 35.0604 6.85771C36.0666 7.64192 36.9139 8.70729 38.2555 8.92924C38.6968 9.00318 39.1733 8.97362 39.6146 9.018C44.0276 9.47674 43.4098 15.8688 43.9217 18.4433C44.0276 18.9611 44.3453 19.6122 44.9808 19.5827C45.5456 19.5679 45.828 19.0055 45.9516 18.5469C46.9049 15.1881 46.9224 11.4594 46.4989 8.0414C46.3753 7.09444 46.1811 6.13267 45.7045 5.27449C43.4628 1.29426 35.4135 0.169765 30.7358 0.776417C25.8462 1.41266 20.5506 4.03164 20.1094 8.55933Z" fill="#D7C68E"/>
<path d="M25.3137 32.6629C23.2484 34.3644 21.8716 36.5692 20.4418 38.611C18.8355 40.9045 17.1585 43.2572 16.0641 45.7281C15.6052 46.7787 15.0933 48.6874 16.9115 49.2201C18.6766 49.7379 19.9828 47.7552 20.7419 46.897C24.6605 42.4285 27.5202 38.4779 30.9094 33.7578C30.9799 33.6542 31.2623 33.3139 31.4918 32.9144C31.7037 32.0267 31.0682 31.2129 29.8502 30.9614C28.1203 30.6062 26.3904 31.7751 25.3137 32.6629Z" fill="#333333"/>
<path d="M62.401 84.2134C62.4187 84.1839 62.4364 84.1543 62.4187 84.1247C60.124 74.2999 61.6597 64.2236 60.3005 54.3248C59.6298 49.4272 58.1469 44.7959 55.5168 40.3866C53.5575 37.1018 51.9159 32.6185 47.5736 31.0648C42.1544 29.1265 35.6409 29.2301 29.9041 29.674C21.943 30.2806 17.7066 37.5012 14.6705 42.9463C12.5346 46.7638 11.8109 51.2767 10.6989 55.3605C9.26908 60.6132 7.89223 66.4429 8.17467 71.8585C8.24528 73.2197 5.95053 85.3824 6.23296 85.3824C10.187 85.3824 14.1409 85.5896 18.1656 85.6931C21.8196 85.7966 25.5264 85.7818 29.1803 85.7226C42.2073 85.5155 49.78 86.6401 61.9775 84.5834C62.3481 84.5242 62.4717 84.3467 62.401 84.2134Z" fill="#F3F3F5"/>
<path d="M61.0027 53.7324C60.2791 49.8558 59.4847 45.9939 57.6842 42.3245C55.9543 38.8473 53.5537 35.6217 51.1354 32.4257C51.1531 32.2925 50.041 32.1149 49.8292 32.0853C46.4048 31.6266 45.4692 34.3048 45.8222 36.7314C46.4223 40.9927 50.6235 44.8694 52.883 48.6425C55.6013 53.1554 56.8545 58.2898 58.4256 63.1133C60.0319 68.0553 61.5323 73.0417 62.5384 78.0725C62.5561 78.2056 62.7503 78.2945 62.9092 78.2945C63.4917 78.2945 64.0565 78.2945 64.6391 78.2945C64.8332 78.2945 65.0451 78.1612 65.0274 77.9837C63.7741 69.9049 62.5209 61.8112 61.0027 53.7324Z" fill="#EBEBED"/>
<path d="M34.4309 40.3423C34.4128 40.3423 34.3766 40.3582 34.3585 40.3582C34.3766 40.3582 34.3947 40.3581 34.4309 40.3423Z" fill="white"/>
<path d="M34.5756 40.3125C34.5576 40.3125 34.5576 40.3284 34.5395 40.3284C34.5576 40.3125 34.5756 40.3125 34.5756 40.3125Z" fill="white"/>
<path d="M34.5177 40.3278C34.5356 40.3278 34.5356 40.3125 34.5356 40.3125C34.4999 40.3278 34.4641 40.3278 34.4284 40.343C34.4463 40.343 34.482 40.343 34.5177 40.3278Z" fill="#1D4360"/>
<path d="M66.7779 80.4698C66.3543 80.1295 65.9129 79.8336 65.4187 79.5673C65.2599 79.4784 65.1011 79.4045 65.0127 79.2861C64.6951 78.9014 64.5538 76.9779 63.5123 77.8213C62.6827 78.5019 62.9298 79.8928 62.6121 80.7361C62.5062 81.0321 62.3826 81.402 62.6651 81.624C62.9475 81.8459 63.4417 81.7275 63.7595 81.5204C64.0596 81.3132 64.2891 81.0321 64.6597 80.8841C65.1186 80.7066 65.7188 80.825 66.0189 81.1653C66.213 81.3872 66.3189 81.6979 66.6367 81.7867C67.0074 81.8755 67.3781 81.5499 67.3427 81.2392C67.3075 80.9433 67.0427 80.6917 66.7779 80.4698Z" fill="#A89288"/>
<path d="M33.1375 31.923C33.0845 31.775 33.0316 31.627 33.0845 31.479C33.1728 31.2423 33.5082 31.1535 33.7906 31.0943C34.7615 30.8724 35.8382 30.6652 36.7561 31.0204C37.674 31.3755 38.1153 32.574 37.3034 33.0771C36.9149 33.3138 36.3325 33.3582 36.156 33.7133C36.0677 33.8909 36.103 34.098 36.156 34.2904C36.809 37.0574 37.4622 39.8094 38.1153 42.5763C39.5804 48.7464 41.0455 54.9462 41.6634 61.205C41.7339 61.9005 41.7868 62.6107 41.5927 63.2765C41.169 64.7413 39.6334 65.7771 38.08 66.5168C37.9035 66.6057 37.7269 66.6796 37.5328 66.6648C37.2504 66.65 37.0562 66.4577 36.8797 66.2802C35.697 65.1261 34.5143 63.9719 33.3494 62.8177C32.908 62.3739 32.449 61.93 32.202 61.3826C31.8842 60.6576 31.9901 59.8438 32.096 59.0744C32.5374 55.8931 32.9963 52.7119 33.4376 49.5158C33.8788 46.3642 34.3202 43.2274 34.4437 40.0462C34.5143 38.463 34.479 36.8946 34.3555 35.3114C34.2496 33.9353 33.6318 33.225 33.1375 31.923Z" fill="#7A4135"/>
<path d="M27.3435 30.1619C27.6259 30.3542 27.6259 30.7094 27.6082 31.0053C27.573 31.7452 27.52 32.4998 27.5553 33.2396C27.7672 37.6045 30.9268 41.7918 35.5516 43.8338C35.9929 44.0261 36.4872 44.2185 36.9814 44.2185C38.4289 44.2185 39.2584 42.872 39.7528 41.7327C41.0942 38.6402 42.4711 35.4738 42.6476 32.189C42.7005 31.3308 42.683 30.3986 43.2478 29.6884C43.8126 28.9782 45.2601 28.6824 45.8425 29.3926C46.1956 29.8216 46.0897 30.3987 46.0191 30.9166C45.5072 34.0238 46.3369 37.2789 48.2962 39.9571C50.1143 42.4281 52.8328 44.3517 54.9333 46.6748C59.6993 51.9422 60.9349 58.8077 62.0293 65.3626C63.0355 71.3551 64.024 77.3919 63.4944 83.4289C63.4415 84.006 63.3532 84.6126 62.8942 85.0269C62.453 85.4265 61.7822 85.5448 61.1643 85.6632C55.7099 86.6101 50.2202 87.3796 44.6952 87.9714C39.4703 88.5335 34.1748 88.9332 28.9321 88.5785C25.5959 88.3561 22.3128 87.8087 19.0295 87.276C13.9281 86.4474 8.82672 85.6187 3.72534 84.7901C4.60793 76.593 5.47287 68.3957 6.35546 60.2134C6.8144 55.9964 7.29102 51.661 9.62106 47.9176C10.7861 46.0237 12.3748 44.3517 13.681 42.5169C15.6226 39.7796 16.9113 36.7315 18.9765 34.0386C20.1945 32.3962 24.3251 28.0164 27.3435 30.1619Z" fill="#97A8B2"/>
<path d="M21.446 26.1372C20.9518 25.131 20.6163 24.7611 19.4867 25.279C19.116 25.4565 18.357 26.0632 17.7568 27.1285C13.6792 32.5292 10.749 36.8497 7.44811 42.6203C6.28309 44.677 5.8771 47.3256 7.65994 49.2492C8.94851 50.64 11.6669 51.1726 13.3615 49.9741C14.8795 48.9088 15.8151 46.5266 16.3799 45.0174C17.3861 42.2948 17.8451 39.4539 18.763 36.7166C19.6632 34.0237 20.1928 31.3011 21.1459 28.6082C21.4283 27.8535 21.8343 26.9214 21.446 26.1372Z" fill="#EBEBED"/>
<defs>
<linearGradient id="paint0_linear_8_112" x1="0.637907" y1="161.355" x2="61.702" y2="164.942" gradientUnits="userSpaceOnUse">
<stop stop-color="white"/>
<stop offset="1"/>
</linearGradient>
<linearGradient id="paint1_linear_8_112" x1="0.641998" y1="161.355" x2="61.7061" y2="164.942" gradientUnits="userSpaceOnUse">
<stop/>
<stop offset="1"/>
</linearGradient>
</defs>
</svg>
