<svg width="119" height="193" viewBox="0 0 119 193" fill="none" xmlns="http://www.w3.org/2000/svg">
<path d="M42.7378 4.69336C42.7378 4.69336 39.9477 4.91338 39.7077 8.77338C39.4677 12.6334 39.4477 23.8334 44.6877 24.5234C49.9277 25.2134 46.1577 6.12338 46.1577 6.12338L42.7378 4.69336Z" fill="#1C2226"/>
<path d="M60.9385 8.15332C60.9385 8.15332 63.0585 14.0633 58.8285 15.1433C54.5885 16.2233 55.3785 7.65332 55.3785 7.65332L60.9385 8.15332Z" fill="#1C2226"/>
<path d="M36.838 45.2734L23.728 63.7534L24.458 62.0234L18.408 89.1434L11.668 87.8834L15.838 60.4134C15.928 59.8134 16.158 59.2734 16.478 58.8134L16.568 58.6834L29.678 40.2034L36.838 45.2734Z" fill="#FCC9A7"/>
<path d="M13.3874 97.4634C9.93737 96.4334 7.98737 92.7934 9.01737 89.3534C10.0474 85.9034 13.6874 83.9534 17.1274 84.9834C20.5774 86.0134 22.5274 89.6535 21.4974 93.0935C20.4674 96.5335 16.8374 98.4934 13.3874 97.4634Z" fill="#FCC9A7"/>
<path d="M65.2172 44.6433L73.5072 69.9833L69.0572 66.9633L96.0572 66.2333L96.4872 73.0833L69.6072 75.7333C67.6072 75.9333 65.8072 74.6933 65.2072 72.8633L65.1572 72.7133L56.8672 47.3733L65.2172 44.6433Z" fill="#FCC9A7"/>
<path d="M63.75 174.253L67.81 185.443L73.75 180.103L69.96 171.133L63.75 174.253Z" fill="#FCC9A7"/>
<path d="M65.4609 182.853C65.4609 182.303 65.9309 181.943 66.4009 182.143C67.3209 182.533 68.8509 182.873 70.6609 182.063C72.5509 181.213 72.9009 179.823 72.9009 178.903C72.9009 178.423 73.2409 178.063 73.6809 178.123L87.5109 180.113C88.3509 180.233 89.1409 180.723 89.7009 181.473C90.2309 182.173 89.981 183.203 89.241 183.423L68.5909 189.703C67.7809 189.953 66.9009 189.363 66.6609 188.423L65.491 183.803C65.471 183.723 65.4609 183.643 65.4609 183.573V182.853Z" fill="#1F252A"/>
<path d="M9.75 166.653L5.25 175.463L10.49 179.943L16.15 169.373L9.75 166.653Z" fill="#FCC9A7"/>
<path d="M4.30908 173.523C4.72908 173.173 5.30908 173.293 5.45908 173.783C5.75908 174.743 6.47908 176.123 8.27908 176.983C10.1491 177.873 11.4391 177.233 12.1391 176.643C12.5091 176.333 13.0091 176.363 13.2391 176.733L20.6791 188.563C21.1291 189.283 21.2691 190.193 21.0591 191.103C20.8691 191.963 19.9291 192.433 19.2691 192.013L1.10907 180.333C0.39907 179.873 0.269071 178.823 0.829071 178.033L3.59909 174.153C3.64909 174.093 3.69906 174.033 3.75906 173.983L4.30908 173.523Z" fill="#1F252A"/>
<path d="M59.1608 84.0134L41.4008 133.283L16.2608 174.943L5.05078 169.403L27.4008 127.873L39.6608 86.3334L59.1608 84.0134Z" fill="#092330"/>
<path d="M31.7206 84.7434C31.7206 84.7434 28.3606 91.0934 33.5806 101.243L49.7906 132.173L62.1406 179.053L74.4106 174.773L62.6706 127.363L49.9806 90.3734L59.1706 84.0234L31.7206 84.7434Z" fill="#0C2C40"/>
<path d="M47.0098 30.0034L33.1798 32.8434C31.5498 33.1734 30.1098 34.1134 29.1398 35.4634L20.3398 47.7234L32.0999 55.4134L27.8598 88.9834C27.8598 88.9834 32.6498 103.643 61.8698 91.9534C61.8698 91.9534 59.3499 64.1334 61.0399 46.0134L60.1798 34.0834L47.0098 30.0034Z" fill="#DF945B"/>
<path d="M60.1909 34.0732L62.491 34.9132C64.391 35.6032 65.8709 37.1333 66.5009 39.0633L71.291 53.6732L57.2109 56.2733L60.1909 34.0732Z" fill="#DF945B"/>
<path d="M105.038 67.7034C105.038 71.3034 102.118 74.2234 98.5178 74.2234C94.9178 74.2234 92.0078 71.3034 92.0078 67.7034C92.0078 64.1034 94.9278 61.1934 98.5178 61.1934C102.118 61.1934 105.038 64.1034 105.038 67.7034Z" fill="#FCC9A7"/>
<path d="M50.9193 34.2334L49.3493 35.1034C46.2993 34.8534 43.4293 34.2034 43.6793 31.1534L44.4093 22.2134L55.4593 23.1234L54.7293 32.0634C54.4793 35.1134 53.9693 34.4834 50.9193 34.2334Z" fill="#FCC9A7"/>
<path d="M44.2578 23.2934C44.2578 23.2934 45.7778 29.9134 51.3378 29.6834C56.1978 29.4734 55.7379 22.2134 55.7379 22.2134L44.2578 23.2934Z" fill="#F4BE9A"/>
<path d="M50.3895 27.3335L49.4495 27.2334C44.7495 26.7234 41.3496 22.5034 41.8496 17.7934L42.4295 12.4335C42.9395 7.73346 47.1595 4.33345 51.8695 4.83345L52.8095 4.93346C57.5095 5.44346 60.9096 9.66346 60.4096 14.3735L59.8295 19.7334C59.3195 24.4334 55.0995 27.8335 50.3895 27.3335Z" fill="#FCC9A7"/>
<path d="M32.9102 53.0733L36.4702 48.8733" stroke="#CE804A" stroke-width="0.7693" stroke-miterlimit="10" stroke-linecap="round" stroke-linejoin="round"/>
<path d="M60.5078 55.6634L61.0479 46.9934" stroke="#CE804A" stroke-width="0.7693" stroke-miterlimit="10" stroke-linecap="round" stroke-linejoin="round"/>
<path d="M50.9183 34.2335L43.8983 29.9935C40.8983 28.7435 38.9883 31.6435 38.9883 31.6435L47.3483 39.8435L50.9183 34.2335Z" fill="#EDA472"/>
<path d="M50.918 34.2334L54.3179 39.4934L57.718 33.3034C57.718 33.3034 56.378 31.1934 54.548 31.6834L50.918 34.2334Z" fill="#EDA472"/>
<path d="M69.241 67.9733H111.731C112.441 67.9733 113.011 67.4033 113.011 66.6933C113.011 65.9833 112.441 65.4133 111.731 65.4133H69.241C68.531 65.4133 67.9609 65.9833 67.9609 66.6933C67.9609 67.3933 68.531 67.9733 69.241 67.9733Z" fill="#D1D1D1"/>
<path d="M113.009 66.3634L118.089 41.6834C118.219 41.0734 117.749 40.4934 117.119 40.4934H91.269C90.799 40.4934 90.3891 40.8234 90.2991 41.2934L85.2891 66.3734H113.009V66.3634Z" fill="#D1D1D1"/>
<path d="M115.219 42.3735L110.479 64.7635H87.0391L91.7791 42.3735H115.219Z" fill="#EFEFEF"/>
<path d="M42.99 16.5133H45.86L46.42 13.3633C46.42 13.3633 49.42 11.7533 48.84 8.64333C48.84 8.64333 61.47 13.1733 63.44 8.13332C66.04 1.48332 56.61 -0.16666 48.84 0.0233397C41.07 0.20334 41.63 10.1233 41.63 10.1233L42.99 16.5133Z" fill="#1C2226"/>
<path d="M44.6681 15.8833C44.4881 17.5633 42.9781 18.7734 41.2981 18.5934C39.6181 18.4134 38.4081 16.9033 38.5881 15.2233C38.7681 13.5433 40.278 12.3333 41.958 12.5133C43.638 12.6933 44.8481 14.2033 44.6681 15.8833Z" fill="#FCC9A7"/>
</svg>
